<?xml version="1.0" standalone="no"?>
<!DOCTYPE svg PUBLIC "-//W3C//DTD SVG 20010904//EN"
 "http://www.w3.org/TR/2001/REC-SVG-20010904/DTD/svg10.dtd">
<svg version="1.0" xmlns="http://www.w3.org/2000/svg"
 width="488.000000pt" height="489.000000pt" viewBox="0 0 488.000000 489.000000"
 preserveAspectRatio="xMidYMid meet">

<g transform="translate(0.000000,489.000000) scale(0.100000,-0.100000)"
fill="#000000" stroke="none">
<path d="M2030 4198 c-34 -106 -99 -310 -144 -453 -196 -609 -298 -937 -293
-942 2 -2 80 30 173 70 93 41 266 116 384 167 118 51 232 101 253 112 22 11
37 14 37 7 0 -19 -39 -230 -60 -329 -12 -52 -30 -142 -41 -200 -61 -315 -121
-615 -126 -629 -4 -9 -3 -13 1 -9 5 4 51 114 103 245 52 130 104 260 117 288
12 27 32 75 43 105 27 70 99 251 161 405 27 66 70 176 97 245 26 69 58 148 71
175 27 61 73 175 70 175 -2 0 -160 -64 -589 -239 -136 -56 -252 -101 -257
-101 -8 0 11 48 79 195 16 33 46 103 69 155 22 52 103 242 180 423 l141 327
-204 0 -204 0 -61 -192z"/>
</g>
</svg>
